<svg xmlns="http://www.w3.org/2000/svg" viewBox="0 0 150 24" fill="currentColor">
  <path d="M12 4 L16 18 L20 4 L24 18 L28 4 M36 4 L44 4 M36 11 L42 11 M36 18 L44 18 M36 4 L36 18 M52 4 L56 4 C60 4 62 6 62 11 L62 11 C62 16 60 18 56 18 L52 18 M52 4 L52 18 M70 18 L74 4 L78 18 M72 13 L76 13 M86 4 L86 18 L94 18 M102 11 L102 11 C102 7 104 4 108 4 L108 4 M102 11 L102 11 C102 15 104 18 108 18 L108 18 M118 11 L118 11 C118 7 120 4 124 4 L124 4 C128 4 130 7 130 11 L130 11 C130 15 128 18 124 18 L124 18 C120 18 118 15 118 11 M138 4 L142 4 C146 4 148 6 148 11 L148 11 C148 16 146 18 142 18 L138 18 M138 4 L138 18 M156 4 L164 4 M156 11 L162 11 M156 18 L164 18 M156 4 L156 18" stroke="currentColor" stroke-width="2.5" fill="none" stroke-linecap="round" stroke-linejoin="round"/>
</svg>